<?xml version="1.0" standalone="no"?>
<!DOCTYPE svg PUBLIC "-//W3C//DTD SVG 20010904//EN"
 "http://www.w3.org/TR/2001/REC-SVG-20010904/DTD/svg10.dtd">
<svg version="1.0" xmlns="http://www.w3.org/2000/svg"
 width="500.000000pt" height="500.000000pt" viewBox="0 0 500.000000 500.000000"
 preserveAspectRatio="xMidYMid meet">
<metadata>
Created by potrace 1.11, written by Peter Selinger 2001-2013
</metadata>
<g transform="translate(0.000000,500.000000) scale(0.100000,-0.100000)"
fill="#000000" stroke="none">
<path d="M2185 4854 c-517 -70 -997 -307 -1365 -674 -371 -372 -606 -850 -675
-1375 -32 -243 -17 -577 36 -825 55 -251 191 -570 337 -790 387 -579 989 -955
1675 -1045 155 -20 459 -20 614 0 522 69 1002 305 1373 675 370 371 606 851
675 1373 20 155 20 459 0 614 -69 522 -305 1002 -675 1373 -371 370 -851 606
-1373 675 -146 19 -481 19 -622 -1z m349 -940 c14 -14 16 -156 16 -1414 0
-1258 -2 -1400 -16 -1414 -20 -20 -48 -20 -68 0 -14 14 -16 156 -16 1414 0
1258 2 1400 16 1414 8 9 24 16 34 16 10 0 26 -7 34 -16z m-896 -640 c42 -9
109 -28 147 -43 90 -35 219 -117 212 -135 -10 -25 -128 -186 -137 -186 -4 0
-32 16 -61 35 -30 19 -87 49 -129 67 -62 26 -92 32 -176 36 -111 5 -158 -5
-212 -45 -43 -32 -62 -72 -62 -131 0 -105 73 -155 325 -221 245 -66 335 -109
419 -202 52 -58 75 -118 83 -215 10 -127 -27 -234 -112 -323 -64 -67 -147
-112 -251 -137 -97 -22 -320 -15 -419 15 -101 30 -230 95 -307 154 -59 44 -66
53 -55 66 110 131 141 166 146 169 4 1 33 -18 66 -43 183 -137 416 -182 564
-108 74 37 101 78 101 153 0 103 -60 152 -248 204 -50 15 -133 37 -183 51
-250 69 -360 166 -391 345 -30 177 56 357 210 437 56 30 133 58 182 66 62 10
218 6 288 -9z m1762 -629 l0 -625 390 0 390 0 0 -120 0 -120 -525 0 -525 0 0
745 0 745 135 0 135 0 0 -625z"/>
</g>
</svg>
